<svg xmlns="http://www.w3.org/2000/svg" viewBox="0 0 32 32">
  <!-- Background -->
  <rect width="32" height="32" rx="4" fill="#121212"/>
  
  <!-- Gradient definition -->
  <defs>
    <linearGradient id="gradient" x1="0%" y1="0%" x2="100%" y2="100%">
      <stop offset="0%" style="stop-color:#8A2BE2"/>
      <stop offset="100%" style="stop-color:#FF00FF"/>
    </linearGradient>
  </defs>
  
  <!-- Stylized 'E' -->
  <path d="
    M 8 6
    L 24 6
    C 25 6 26 7 26 8
    L 26 10
    C 26 11 25 12 24 12
    L 12 12
    L 12 14
    L 22 14
    C 23 14 24 15 24 16
    L 24 17
    C 24 18 23 19 22 19
    L 12 19
    L 12 22
    L 24 22
    C 25 22 26 23 26 24
    L 26 26
    C 26 27 25 28 24 28
    L 8 28
    C 7 28 6 27 6 26
    L 6 8
    C 6 7 7 6 8 6
    Z" 
    fill="url(#gradient)"
  />
</svg>
